<?xml version="1.0" encoding="utf-8"?>
<!-- Generator: Adobe Illustrator 15.0.0, SVG Export Plug-In . SVG Version: 6.00 Build 0)  -->
<!DOCTYPE svg PUBLIC "-//W3C//DTD SVG 1.1//EN" "http://www.w3.org/Graphics/SVG/1.1/DTD/svg11.dtd">
<svg version="1.1" id="Layer_1" xmlns="http://www.w3.org/2000/svg" xmlns:xlink="http://www.w3.org/1999/xlink" x="0px" y="0px"
	 width="32px" height="32px" viewBox="0 0 32 32" enable-background="new 0 0 32 32" xml:space="preserve">
<g>
	<rect x="0.5" y="1.5" fill="#FFBC00" stroke="#000000" stroke-linejoin="round" stroke-miterlimit="10" width="31" height="30"/>
	<g>
		<path fill="#FFEC7D" d="M16,12.797C16,14.566,14.52,16,12.694,16H4.306C2.48,16,1,14.566,1,12.797v-0.594C1,10.434,2.48,9,4.306,9
			h8.389C14.52,9,16,10.434,16,12.203V12.797z"/>
		<path d="M16,12.792c0,1.589-1.263,3.327-3.146,3.809c-0.497,0.098-0.939,0.145-1.344,0.183c-0.395,0.044-0.835,0.079-1.23,0.092
			c-0.79,0.026-1.602,0.006-2.391-0.054c-0.789-0.065-1.59-0.174-2.379-0.281L4.321,16.4c-0.394-0.034-0.809-0.057-1.25-0.175
			c-0.841-0.208-1.599-0.694-2.153-1.367c-0.559-0.661-0.869-1.595-0.9-2.463c-0.091-0.854,0.187-1.926,0.818-2.666
			c0.62-0.769,1.558-1.285,2.557-1.426c0.55-0.064,0.875-0.06,1.286-0.083l1.184-0.044C6.651,8.144,7.44,8.153,8.23,8.154
			c0.789,0.037,1.579,0.035,2.368,0.104c0.395,0.025,0.79,0.064,1.184,0.121c0.214,0.029,0.358,0.039,0.629,0.092
			c0.165,0.035,0.471,0.107,0.69,0.189c0.904,0.322,1.786,0.99,2.21,1.733C15.751,11.139,16,12.002,16,12.787V12.792z M15,12.787
			c0-0.789,0.002-1.551-0.527-2.069c-0.514-0.525-1.119-0.771-1.762-0.773c-0.579,0.018-1.393,0.213-2.167,0.238
			c-0.789,0.068-1.551,0.067-2.34,0.104c-0.79,0.001-1.565,0.01-2.355-0.021l-2.257-0.083c-1.129,0.062-2.285,0.89-2.484,2.271
			c-0.124,0.706-0.058,1.397,0.352,2.001c0.385,0.595,1.041,1.022,1.747,1.138c0.678,0.094,1.513-0.068,2.293-0.153
			c0.789-0.106,1.579-0.215,2.368-0.281c0.79-0.06,1.579-0.08,2.368-0.054c0.395,0.013,0.789,0.048,1.184,0.092
			c0.384,0.029,0.824,0.111,1.114,0.139c0.646,0.06,1.167-0.107,1.739-0.576C14.847,14.299,15,13.564,15,12.782V12.787z"/>
	</g>
	<g>
		<path fill="#FFEC7D" d="M32,12.797C32,14.566,30.52,16,28.694,16h-8.389C18.48,16,17,14.566,17,12.797v-0.594
			C17,10.434,18.48,9,20.306,9h8.389C30.52,9,32,10.434,32,12.203V12.797z"/>
		<path d="M32,12.792c0,1.589-1.279,3.328-3.162,3.809c-0.496,0.098-0.947,0.145-1.352,0.183c-0.395,0.044-0.839,0.079-1.234,0.092
			c-0.789,0.026-1.603,0.006-2.392-0.054c-0.79-0.065-1.592-0.174-2.381-0.281L20.288,16.4c-0.394-0.034-0.809-0.057-1.25-0.175
			c-0.841-0.208-1.599-0.694-2.153-1.367c-0.559-0.661-0.868-1.595-0.899-2.463c-0.091-0.854,0.186-1.926,0.817-2.666
			c0.619-0.769,1.558-1.285,2.557-1.426c0.55-0.064,0.876-0.06,1.286-0.083l1.185-0.044c0.789-0.032,1.578-0.022,2.367-0.021
			c0.79,0.037,1.579,0.035,2.368,0.104c0.395,0.025,0.789,0.064,1.185,0.121c0.213,0.029,0.357,0.039,0.629,0.092
			c0.164,0.035,0.471,0.107,0.689,0.189c0.903,0.322,1.801,0.99,2.227,1.733C31.734,11.139,32,12.002,32,12.787V12.792z M31,12.787
			c0-0.789-0.014-1.551-0.543-2.069c-0.514-0.524-1.128-0.77-1.771-0.772c-0.578,0.018-1.396,0.213-2.17,0.238
			c-0.789,0.068-1.554,0.067-2.344,0.104c-0.789,0.001-1.565,0.01-2.354-0.021l-2.258-0.083c-1.13,0.062-2.285,0.89-2.484,2.271
			c-0.124,0.706-0.059,1.397,0.352,2.001c0.384,0.595,1.041,1.022,1.746,1.139c0.679,0.093,1.514-0.069,2.294-0.154
			c0.789-0.106,1.578-0.215,2.368-0.281c0.789-0.06,1.578-0.08,2.367-0.054c0.396,0.013,0.79,0.048,1.185,0.092
			c0.385,0.029,0.824,0.111,1.114,0.139c0.646,0.06,1.183-0.107,1.754-0.576C30.83,14.299,31,13.564,31,12.782V12.787z"/>
	</g>
	<g>
		<ellipse cx="11.303" cy="13.503" rx="2.765" ry="2.68"/>
		<ellipse cx="22.181" cy="13.503" rx="2.764" ry="2.68"/>
	</g>
	<path d="M16.003,21.084c0,0,8.195-2.914,11.621,1.78c1.881,2.575-0.125,6.718,3.877,8.367
		C31.501,31.231,14.442,33.035,16.003,21.084z"/>
	<path d="M16.062,21.084c0,0-8.195-2.914-11.622,1.78c-1.88,2.575,0.125,6.718-3.876,8.367
		C0.563,31.231,17.622,33.035,16.062,21.084z"/>
	<path fill="#FFE000" stroke="#000000" stroke-linejoin="round" stroke-miterlimit="10" d="M14.938,1.479
		c0,0-0.836,14.636-3.122,16.12c-2.286,1.486-1.84,3.717-0.613,3.948c1.227,0.232,1.784-0.37,1.784-0.37s0.238,1.996,3.046,1.996
		s3.533-1.258,3.533-2.604c0,0,0.222,0.695,1.449,1.021c1.227,0.326,3.529-1.457,0.669-4.133s-3.373-6.793-4.237-15.978"/>
	<path d="M15.034,1.726c0,0,0.467,6.165-5.958,6.165C2.652,7.891,1,7.771,0,8.677V1.968c0,0,12.445,0,13.443-1.512
		C14.261-0.783,15.034,0.577,15.034,1.726z"/>
	<path d="M17.04,1.726c0,0-0.504,6.165,5.921,6.165c6.424,0,8.041-0.12,9.039,0.786V1.968c0,0-12.407,0-13.405-1.512
		C17.775-0.783,17.04,0.577,17.04,1.726z"/>
</g>
</svg>
