<?xml version="1.0" encoding="utf-8"?>
<!-- Generator: Adobe Illustrator 15.0.2, SVG Export Plug-In . SVG Version: 6.00 Build 0)  -->
<!DOCTYPE svg PUBLIC "-//W3C//DTD SVG 1.1//EN" "http://www.w3.org/Graphics/SVG/1.1/DTD/svg11.dtd">
<svg version="1.1" id="Layer_1" xmlns="http://www.w3.org/2000/svg" xmlns:xlink="http://www.w3.org/1999/xlink" x="0px" y="0px"
	 width="32px" height="32px" viewBox="0 0 32 32" enable-background="new 0 0 32 32" xml:space="preserve">
<path d="M30.291,29.553c0-7.598-6.183-13.757-13.808-13.757H5.552c-1.901,0-3.712,0.383-5.361,1.076v15.283h30.1V29.553z"/>
<polygon fill="#FFCC33" points="18.804,23.461 11.488,30.777 11.109,21.19 17.956,22.19 "/>
<polygon points="1.504,3.039 9.936,6.59 6.686,18.59 "/>
<polygon points="32,14.573 24.286,13.039 21.992,24.584 "/>
<path opacity="0.42" d="M26.858,16.557c-1.857,5.892-9.687,8.788-13.313,7.79C9.918,23.348,5.1,16.693,6.957,10.802
	C8.813,4.911,7.662-0.263,20.271,3.013C32.879,6.29,28.716,10.666,26.858,16.557z"/>
<linearGradient id="SVGID_1_" gradientUnits="userSpaceOnUse" x1="18.1611" y1="23.582" x2="18.1611" y2="1.0381">
	<stop  offset="0" style="stop-color:#EB9600"/>
	<stop  offset="0.2046" style="stop-color:#EEA818"/>
	<stop  offset="0.6327" style="stop-color:#F7D554"/>
	<stop  offset="1" style="stop-color:#FFFF8C"/>
</linearGradient>
<path fill="url(#SVGID_1_)" stroke="#000000" stroke-width="0.25" stroke-miterlimit="10" d="M27.233,15.599
	c-1.857,5.891-9.687,8.788-13.313,7.79c-3.627-0.999-8.445-7.653-6.588-13.544C9.188,3.954,8.037-1.221,20.646,2.056
	C33.254,5.332,29.091,9.708,27.233,15.599z"/>
<g>
	<path fill="#FFFFFF" d="M25.445,12.268c-1.982,2.256-4.463,3.382-5.542,2.514c-1.076-0.87-0.342-3.401,1.642-5.658
		c1.982-2.256,4.463-3.382,5.542-2.513C28.163,7.479,27.429,10.011,25.445,12.268z"/>
	<path d="M23.475,13.296c-0.908,1.034-2.238,1.394-2.971,0.803c-0.734-0.59-0.59-1.907,0.318-2.942
		c0.909-1.033,2.24-1.393,2.973-0.802C24.527,10.946,24.385,12.262,23.475,13.296z"/>
</g>
<g>
	<path fill="#FFFFFF" d="M15.894,8.175c0.164,2.882-0.818,5.276-2.195,5.349c-1.377,0.072-2.626-2.206-2.791-5.089
		c-0.164-2.882,0.818-5.277,2.195-5.349S15.729,5.292,15.894,8.175z"/>
	<path d="M15.208,10.173c0.076,1.321-0.623,2.431-1.559,2.48c-0.936,0.05-1.756-0.982-1.833-2.303
		c-0.075-1.321,0.624-2.432,1.561-2.481C14.313,7.821,15.132,8.852,15.208,10.173z"/>
</g>
<path fill="none" stroke="#000000" stroke-miterlimit="10" d="M24.246,15.837c-1.373,2.917-4.161,4.914-7.379,4.914
	c-4.575,0-8.284-4.039-8.284-9.02"/>
<path d="M19.093,8.57c1.511-2.788,4.478-4.431,7.417-4.105l0.001-0.002c0,0-0.382-0.696-5.584-2.268s-5.245-1.157-5.245-1.157
	C18.25,2.451,19.614,5.464,19.093,8.57z"/>
</svg>
