<?xml version="1.0" encoding="utf-8"?>
<!-- Generator: Adobe Illustrator 15.0.2, SVG Export Plug-In . SVG Version: 6.00 Build 0)  -->
<!DOCTYPE svg PUBLIC "-//W3C//DTD SVG 1.1//EN" "http://www.w3.org/Graphics/SVG/1.1/DTD/svg11.dtd">
<svg version="1.1" id="Layer_1" xmlns="http://www.w3.org/2000/svg" xmlns:xlink="http://www.w3.org/1999/xlink" x="0px" y="0px"
	 width="32px" height="32px" viewBox="0 0 32 32" enable-background="new 0 0 32 32" xml:space="preserve">
<rect x="2.5" y="0.5" fill="#A6B556" stroke="#000000" stroke-miterlimit="10" width="27" height="31"/>
<polygon stroke="#000000" stroke-miterlimit="10" points="31.5,29.417 29.5,28.209 29.5,26.498 31.5,24.584 "/>
<path fill="#15141A" d="M4.083,7.534L2.89,2.229L2.5,0.5c0,0-0.333,7.788,2.75,7.034c3.083-0.754,6.75-4.521,7-2.261
	s4.084,3.014,5.167,1.255s5.251-3.013,5.167-0.502c-0.084,2.511,4.75,2.512,5.25-0.753C28.334,2.007,29.5,0.5,29.5,0.5
	S5.54,0.8,3.25,0.5"/>
<path fill="#15141A" d="M13,13.25c0,0.966-0.784,1.75-1.75,1.75h-0.5C9.784,15,9,14.216,9,13.25v-0.5C9,11.784,9.784,11,10.75,11
	h0.5c0.966,0,1.75,0.784,1.75,1.75V13.25z"/>
<path opacity="0.5" fill="#15141A" d="M15,13.548C15,15.235,13.184,17,11.363,17h-0.941C8.602,17,7,15.235,7,13.548v-0.872
	C7,10.992,8.602,10,10.422,10h0.941C13.184,10,15,10.992,15,12.677V13.548z"/>
<path opacity="0.5" fill="#15141A" d="M25,13.541C25,14.955,23.395,17,21.398,17h-1.032C18.369,17,17,14.955,17,13.541V12.81
	c0-1.413,1.369-2.81,3.366-2.81h1.032C23.395,10,25,11.396,25,12.81V13.541z"/>
<path fill="#15141A" d="M23,13c0,1.104-0.896,2-2,2l0,0c-1.104,0-2-0.896-2-2l0,0c0-1.104,0.896-2,2-2l0,0
	C22.104,11,23,11.896,23,13L23,13z"/>
<g>
	<g>
		<path d="M6.304,11.944c7.278-0.027,14.555-0.055,21.833-0.083c2.562-0.01-1.582-2.56-2.775-2.555
			C18.085,9.333,10.807,9.361,3.53,9.389C0.968,9.399,5.111,11.949,6.304,11.944L6.304,11.944z"/>
	</g>
</g>
<g>
	<g>
		<path d="M9.323,29.966c4.033-1.152,8.065-2.305,12.099-3.457c1.175-0.336,0.854-1.563-0.328-1.225
			c-4.033,1.152-8.066,2.305-12.099,3.457C7.82,29.077,8.142,30.304,9.323,29.966L9.323,29.966z"/>
	</g>
</g>
<polygon stroke="#000000" stroke-miterlimit="10" points="0.5,29.417 2.5,28.209 2.5,26.498 0.5,24.584 "/>
<path fill="#15141A" d="M18,22.031C18,22.859,16.329,24,15.5,24l0,0c-0.829,0-2.156-1.203-2.156-2.031L14.75,17.5
	c0-0.829-0.026-1.282,0.75-1.5l0,0c0.829,0,0.5,0.734,0.5,1.563L18,22.031z"/>
</svg>
