<?xml version="1.0" encoding="utf-8"?>
<!-- Generator: Adobe Illustrator 16.0.0, SVG Export Plug-In . SVG Version: 6.00 Build 0)  -->
<!DOCTYPE svg PUBLIC "-//W3C//DTD SVG 1.1//EN" "http://www.w3.org/Graphics/SVG/1.1/DTD/svg11.dtd">
<svg version="1.1" id="Layer_1" xmlns="http://www.w3.org/2000/svg" xmlns:xlink="http://www.w3.org/1999/xlink" x="0px" y="0px"
	 width="612px" height="792px" viewBox="0 0 612 792" enable-background="new 0 0 612 792" xml:space="preserve">
<g>
	<path fill="none" stroke="#000000" stroke-miterlimit="10" d="M303.177,223.396"/>
	<path fill="none" stroke="#000000" stroke-miterlimit="10" d="M314.813,236.324"/>
	<linearGradient id="SVGID_1_" gradientUnits="userSpaceOnUse" x1="306.5083" y1="246.3096" x2="306.5822" y2="215.2772">
		<stop  offset="0" style="stop-color:#00AEEF;stop-opacity:0.7"/>
		<stop  offset="0.0851" style="stop-color:#009BDF;stop-opacity:0.7255"/>
		<stop  offset="0.224" style="stop-color:#0080C8;stop-opacity:0.7672"/>
		<stop  offset="0.3635" style="stop-color:#006AB6;stop-opacity:0.809"/>
		<stop  offset="0.5003" style="stop-color:#0058A9;stop-opacity:0.8501"/>
		<stop  offset="0.6341" style="stop-color:#15489E;stop-opacity:0.8902"/>
		<stop  offset="0.7639" style="stop-color:#263B97;stop-opacity:0.9292"/>
		<stop  offset="0.8879" style="stop-color:#2D3393;stop-opacity:0.9664"/>
		<stop  offset="1" style="stop-color:#2E3192"/>
	</linearGradient>
	<path fill="url(#SVGID_1_)" stroke="#000000" stroke-miterlimit="10" d="M317.182,245.066c-1.099-1.702-2.344-1.915-3.189-3.62
		c-0.748-1.509-0.541-3.714-0.473-5.386c0.09-2.187,2.296-6.023-0.075-7.494c-0.192-0.12-1.521-1.42-1.58-1.469
		c-2.471-2.073-0.801-8.423-2.126-9.997c-1.83-2.174-9.571-3.69-11.528-0.767c-1.021,1.523-0.222,4.279-0.217,6.055
		c0.006,2.27-0.782,3.462-1.873,5.358c-1.676,2.913-0.568,7.466,1.669,9.433c1.22,1.073,1.935,1.874,1.161,5.699
		c-0.407,2.011-5.723,4.6,1.116,3.455c4.358,0.744,2.71-0.479,5.581-0.106c1.792,0.232,2.02,0.901,3.729,0.118
		c0.752-0.345,2.143-0.168,2.852-0.104c0.911,0.083,1.911,0.537,2.586,0.463C317.686,246.391,318.387,246.934,317.182,245.066z
		 M305.711,221.491c0.342-0.929,0.258-1.624,0.584-1.74c3.344-1.189,2.954,7.77,1.051,6.917
		C304.906,225.573,305.008,223.396,305.711,221.491z M300.172,225.047c-0.667-1.746,0.372-1.652,0.368-4.169l0.084-0.571
		c0.324-0.898,1.158-0.679,1.922-0.178c1.299,0.852,0.693,1.391,0.711,2.596c0.023,1.566,0.704,3.635-0.458,4.189
		C301.396,227.586,300.642,226.276,300.172,225.047z M309.398,238.087c-0.242,0.577-1.932-0.863-2.479-0.604
		c-0.873,0.413-0.619,1.563-1.497,1.833c-1.992,0.613-2.575-1.464-3.178-2.921c-0.443-1.071-0.674-4.108-0.489-4.634
		c0.533-1.511,3.292-1.225,4.529-0.432c0.313,0.201,0.91,0.961,1.248,0.808C310.516,230.78,310.504,235.458,309.398,238.087z"/>
</g>
</svg>
