<?xml version="1.0" encoding="utf-8"?>
<!-- Generator: Adobe Illustrator 15.0.0, SVG Export Plug-In . SVG Version: 6.00 Build 0)  -->
<!DOCTYPE svg PUBLIC "-//W3C//DTD SVG 1.1//EN" "http://www.w3.org/Graphics/SVG/1.1/DTD/svg11.dtd">
<svg version="1.1" id="Layer_1" xmlns="http://www.w3.org/2000/svg" xmlns:xlink="http://www.w3.org/1999/xlink" x="0px" y="0px"
	 width="298.967px" height="279px" viewBox="0 0 298.967 279" enable-background="new 0 0 298.967 279" xml:space="preserve">
<path fill="#29ABE2" d="M148.127,0C94.179,0,49.504,38.513,49.504,140.455C49.504,224.139,0,208.669,0,208.669
	s2.801,41.91,49.891,36.246c0,0,15.697,45.309,72.446,11.327c0,0,26.911,49.03,75.811,3.157c0,0,48.167,42.151,81.976-30.341
	C313.925,156.566,319.202,0,148.127,0z"/>
<path fill="#FFFFFF" d="M170.854,20.993c0,0,21.053,39.473,0,143.473c0,0,100.773,57.744,107.842,6.527
	C289.5,92.713,234.907,24.784,170.854,20.993z"/>
<path fill="#FFFFFF" d="M149.484,160.466c0,0,21.37-54.149,8.212-139.473c0,0-75.765,5.332-85.526,80.263
	C64.275,161.853,149.484,160.466,149.484,160.466z"/>
<path fill="#197899" d="M132.829,154.491c0,0,3.794,3.373,9.696,0s1.124-14.334-5.48-13.49S128.054,149.116,132.829,154.491z"/>
<path fill="#197899" d="M177.809,162.627c1.307,3.64,10.807,8.586,13.897,5.495c3.091-3.092,6.604-11.383,1.265-15.036
	S173.956,151.896,177.809,162.627z"/>
<path fill="none" stroke="#197899" stroke-width="5" stroke-linecap="round" stroke-linejoin="round" stroke-miterlimit="10" d="
	M130.281,202.784c0,0,21.502-8,31.768,0"/>
<path fill="none" stroke="#197899" stroke-linecap="round" stroke-linejoin="round" stroke-miterlimit="10" d="M142.621,207.847
	c0,0,4.823-1.527,9.807,0"/>
</svg>
