<?xml version="1.0" encoding="utf-8"?>
<!-- Generator: Adobe Illustrator 15.0.0, SVG Export Plug-In . SVG Version: 6.00 Build 0)  -->
<!DOCTYPE svg PUBLIC "-//W3C//DTD SVG 1.1//EN" "http://www.w3.org/Graphics/SVG/1.1/DTD/svg11.dtd">
<svg version="1.1" id="Layer_1" xmlns="http://www.w3.org/2000/svg" xmlns:xlink="http://www.w3.org/1999/xlink" x="0px" y="0px"
	 width="888.5px" height="834.49px" viewBox="0 0 888.5 834.49" enable-background="new 0 0 888.5 834.49" xml:space="preserve">
<pattern  x="-16.5" y="683" width="46.766" height="54.001" patternUnits="userSpaceOnUse" id="Circles" viewBox="17.311 -56.4 46.766 54.001" overflow="visible">
	<g>
		<polygon fill="none" points="17.312,-2.399 17.312,-56.4 64.077,-56.4 64.077,-2.399 		"/>
		<line fill="#FFFFFF" x1="0" y1="-8.399" x2="6" y2="-2.399"/>
		<line fill="#FFFFFF" x1="0" y1="-2.399" x2="6" y2="-8.399"/>
		<path fill="none" stroke="#231F20" stroke-width="0.3" d="M58.376-34.825c0.414-0.717,0.169-1.634-0.549-2.049
			c-0.717-0.414-1.635-0.168-2.049,0.549c-0.414,0.719-0.168,1.636,0.549,2.05C57.045-33.86,57.962-34.106,58.376-34.825z"/>
		<path fill="none" stroke="#231F20" stroke-width="0.3" d="M57.126-26.476c-0.414-0.717-1.331-0.963-2.049-0.549
			c-0.717,0.415-0.963,1.332-0.549,2.05c0.414,0.717,1.332,0.963,2.049,0.549C57.295-24.841,57.54-25.758,57.126-26.476z"/>
		<path fill="none" stroke="#231F20" stroke-width="0.3" d="M48.876-39.575c-0.414-0.717-1.331-0.963-2.049-0.549
			c-0.717,0.415-0.963,1.332-0.549,2.049c0.414,0.719,1.332,0.965,2.049,0.55C49.045-37.939,49.29-38.856,48.876-39.575z"/>
		<path fill="none" stroke="#231F20" stroke-width="0.3" d="M41.327-32.775c0.414-0.718,0.169-1.635-0.549-2.05
			c-0.718-0.414-1.636-0.168-2.05,0.55c-0.413,0.718-0.168,1.635,0.55,2.05C39.996-31.811,40.913-32.057,41.327-32.775z"/>
		<path fill="none" stroke="#231F20" stroke-width="0.3" d="M44.126-26.575c-0.414-0.717-1.331-0.963-2.049-0.549
			c-0.717,0.415-0.963,1.332-0.549,2.049c0.414,0.719,1.332,0.965,2.049,0.55C44.295-24.939,44.54-25.856,44.126-26.575z"/>
		<path fill="none" stroke="#231F20" stroke-width="0.3" d="M49.739-21.899c-0.829,0-1.5,0.671-1.5,1.5c0,0.827,0.671,1.5,1.5,1.5
			c0.828,0,1.5-0.673,1.5-1.5C51.239-21.228,50.567-21.899,49.739-21.899z"/>
		<path fill="none" stroke="#231F20" stroke-width="0.3" d="M23.835-32.725c-0.414-0.718-0.168-1.635,0.549-2.05
			c0.718-0.414,1.635-0.168,2.049,0.55c0.415,0.717,0.169,1.634-0.549,2.049C25.167-31.762,24.25-32.008,23.835-32.725z"/>
		<path fill="none" stroke="#231F20" stroke-width="0.3" d="M24.464-25.151c0.414-0.718,1.331-0.964,2.049-0.55
			c0.718,0.415,0.963,1.332,0.549,2.051c-0.413,0.717-1.331,0.963-2.049,0.549C24.295-23.516,24.05-24.433,24.464-25.151z"/>
		<path fill="none" stroke="#231F20" stroke-width="0.3" d="M29.729-39.976c0.414-0.717,1.332-0.963,2.05-0.549
			c0.718,0.415,0.963,1.332,0.549,2.049c-0.414,0.718-1.331,0.964-2.049,0.549C29.561-38.341,29.315-39.258,29.729-39.976z"/>
		<path fill="none" stroke="#231F20" stroke-width="0.3" d="M35.312-22.9c0.829,0,1.5,0.672,1.5,1.5s-0.671,1.5-1.5,1.5
			c-0.827,0-1.5-0.672-1.5-1.5S34.484-22.9,35.312-22.9z"/>
		<path fill="none" stroke="#231F20" stroke-width="0.3" d="M58.332-6.399C57.918-5.682,57-5.436,56.283-5.85
			s-0.963-1.332-0.549-2.049c0.414-0.719,1.332-0.964,2.049-0.55S58.746-7.118,58.332-6.399z"/>
		<path fill="none" stroke="#231F20" stroke-width="0.3" d="M42.626-6.325c-0.414,0.719-1.331,0.965-2.049,0.55
			c-0.717-0.414-0.963-1.331-0.549-2.05c0.414-0.717,1.332-0.963,2.049-0.549C42.795-7.958,43.04-7.042,42.626-6.325z"/>
		<path fill="none" stroke="#231F20" stroke-width="0.3" d="M48.489-9.899c-0.829,0-1.5-0.673-1.5-1.5c0-0.829,0.671-1.5,1.5-1.5
			c0.828,0,1.5,0.671,1.5,1.5C49.989-10.572,49.317-9.899,48.489-9.899z"/>
		<path fill="none" stroke="#231F20" stroke-width="0.3" d="M23.077-6.025c0.414,0.718,1.332,0.964,2.049,0.549
			c0.718-0.414,0.963-1.331,0.549-2.049s-1.331-0.964-2.049-0.55C22.909-7.66,22.663-6.743,23.077-6.025z"/>
		<path fill="none" stroke="#231F20" stroke-width="0.3" d="M33.15-11.899c0.827,0,1.5-0.673,1.5-1.5c0-0.829-0.673-1.5-1.5-1.5
			c-0.828,0-1.5,0.671-1.5,1.5C31.65-12.572,32.322-11.899,33.15-11.899z"/>
		<path fill="none" stroke="#231F20" stroke-width="0.3" d="M57.582-52.65c0.414,0.718,0.168,1.635-0.549,2.049
			c-0.717,0.415-1.635,0.169-2.049-0.549s-0.168-1.635,0.549-2.05C56.25-53.614,57.168-53.368,57.582-52.65z"/>
		<path fill="none" stroke="#231F20" stroke-width="0.3" d="M49.788-46.65c-0.414,0.718-1.332,0.964-2.049,0.549
			c-0.718-0.414-0.964-1.331-0.549-2.049c0.413-0.718,1.331-0.964,2.049-0.55C49.956-48.285,50.202-47.368,49.788-46.65z"/>
		<path fill="none" stroke="#231F20" stroke-width="0.3" d="M42.675-53.275c0.415,0.718,0.169,1.635-0.549,2.05
			c-0.717,0.414-1.635,0.168-2.049-0.55s-0.168-1.635,0.549-2.05C41.344-54.239,42.261-53.993,42.675-53.275z"/>
		<path fill="none" stroke="#231F20" stroke-width="0.3" d="M23.807-52.65c-0.414,0.718-0.169,1.635,0.55,2.049
			c0.717,0.415,1.635,0.169,2.049-0.549s0.168-1.635-0.549-2.05C25.138-53.614,24.221-53.368,23.807-52.65z"/>
		<path fill="none" stroke="#231F20" stroke-width="0.3" d="M32.101-47.65c0.414,0.718,1.332,0.964,2.05,0.549
			c0.717-0.414,0.963-1.331,0.549-2.049s-1.332-0.964-2.049-0.55C31.933-49.285,31.687-48.368,32.101-47.65z"/>
		<path fill="none" stroke="#231F20" stroke-width="0.3" d="M64.827-37.4c-0.828,0-1.5-0.672-1.5-1.5s0.672-1.5,1.5-1.5
			c0.829,0,1.5,0.672,1.5,1.5S65.656-37.4,64.827-37.4z"/>
		<path fill="none" stroke="#231F20" stroke-width="0.3" d="M64.812-9.899c0.828,0,1.5-0.673,1.5-1.5c0-0.829-0.672-1.5-1.5-1.5
			s-1.5,0.671-1.5,1.5C63.312-10.572,63.983-9.899,64.812-9.899z"/>
		<path fill="none" stroke="#231F20" stroke-width="0.3" d="M43.126-17.075c-0.414-0.717-1.331-0.963-2.049-0.549
			c-0.717,0.415-0.963,1.332-0.549,2.049c0.414,0.719,1.332,0.965,2.049,0.55C43.295-15.439,43.54-16.356,43.126-17.075z"/>
		<path fill="none" stroke="#231F20" stroke-width="0.3" d="M34.626-30.075c-0.414-0.717-1.331-0.963-2.049-0.549
			c-0.717,0.415-0.963,1.332-0.549,2.049c0.414,0.719,1.332,0.965,2.049,0.55C34.795-28.439,35.04-29.356,34.626-30.075z"/>
		<path fill="none" stroke="#231F20" stroke-width="0.3" d="M50.861-31.95c-0.414-0.717-1.331-0.963-2.05-0.549
			c-0.717,0.415-0.963,1.332-0.549,2.049c0.414,0.719,1.332,0.965,2.049,0.55C51.03-30.314,51.275-31.231,50.861-31.95z"/>
		<path fill="none" stroke="#231F20" stroke-width="0.3" d="M41.876-43.575c-0.414-0.717-1.331-0.963-2.049-0.549
			c-0.717,0.415-0.963,1.332-0.549,2.049c0.414,0.719,1.332,0.965,2.049,0.55C42.045-41.939,42.29-42.856,41.876-43.575z"/>
		<path fill="none" stroke="#231F20" stroke-width="0.3" d="M25.376-44.075c-0.414-0.717-1.331-0.963-2.049-0.549
			c-0.717,0.415-0.963,1.332-0.549,2.049c0.414,0.719,1.332,0.965,2.049,0.55C25.545-42.439,25.79-43.356,25.376-44.075z"/>
		<path fill="none" stroke="#231F20" stroke-width="0.3" d="M57.437-44.15c-0.414-0.718-1.331-0.964-2.049-0.55
			c-0.718,0.415-0.964,1.332-0.55,2.05c0.415,0.718,1.332,0.964,2.05,0.55C57.605-42.515,57.851-43.432,57.437-44.15z"/>
		<path fill="none" stroke="#231F20" stroke-width="0.3" d="M25.626-17.075c-0.414-0.717-1.331-0.963-2.049-0.549
			c-0.717,0.415-0.963,1.332-0.549,2.049c0.414,0.719,1.332,0.965,2.049,0.55C25.795-15.439,26.04-16.356,25.626-17.075z"/>
		<path fill="none" stroke="#231F20" stroke-width="0.3" d="M34.126-4.325c-0.414-0.717-1.331-0.963-2.049-0.549
			c-0.717,0.415-0.963,1.332-0.549,2.049c0.414,0.718,1.332,0.963,2.049,0.55C34.295-2.689,34.54-3.606,34.126-4.325z"/>
		<path fill="none" stroke="#231F20" stroke-width="0.3" d="M51.876-3.825c-0.414-0.717-1.331-0.963-2.049-0.549
			c-0.717,0.415-0.963,1.332-0.549,2.049c0.414,0.718,1.332,0.963,2.049,0.55C52.045-2.189,52.29-3.106,51.876-3.825z"/>
		<path fill="none" stroke="#231F20" stroke-width="0.3" d="M56.812-16.65c0.829,0,1.5,0.671,1.5,1.5c0,0.827-0.671,1.5-1.5,1.5
			c-0.827,0-1.5-0.673-1.5-1.5C55.312-15.979,55.984-16.65,56.812-16.65z"/>
		<path fill="none" stroke="#231F20" stroke-width="0.3" d="M64.077-3.15c-0.828,0-1.5,0.672-1.5,1.5c0,0.827,0.672,1.5,1.5,1.5
			c0.829,0,1.5-0.673,1.5-1.5C65.577-2.478,64.906-3.15,64.077-3.15z"/>
		<path fill="none" stroke="#231F20" stroke-width="0.3" d="M65.11-30.2c-0.415-0.717-1.332-0.963-2.05-0.549
			c-0.718,0.415-0.964,1.332-0.549,2.049c0.414,0.719,1.331,0.965,2.049,0.55C65.278-28.564,65.524-29.481,65.11-30.2z"/>
		<path fill="none" stroke="#231F20" stroke-width="0.3" d="M64.797-49.9c-0.829,0-1.5,0.672-1.5,1.5s0.671,1.5,1.5,1.5
			c0.828,0,1.5-0.672,1.5-1.5S65.625-49.9,64.797-49.9z"/>
		<path fill="none" stroke="#231F20" stroke-width="0.3" d="M62.797-21.65c0.829,0,1.5,0.672,1.5,1.5s-0.671,1.5-1.5,1.5
			c-0.828,0-1.5-0.672-1.5-1.5S61.969-21.65,62.797-21.65z"/>
		<path fill="none" stroke="#231F20" stroke-width="0.3" d="M18.077-37.4c-0.828,0-1.5-0.672-1.5-1.5s0.672-1.5,1.5-1.5
			c0.829,0,1.5,0.672,1.5,1.5S18.906-37.4,18.077-37.4z"/>
		<path fill="none" stroke="#231F20" stroke-width="0.3" d="M18.062-9.899c0.828,0,1.5-0.673,1.5-1.5c0-0.829-0.672-1.5-1.5-1.5
			s-1.5,0.671-1.5,1.5C16.562-10.572,17.233-9.899,18.062-9.899z"/>
		<path fill="none" stroke="#231F20" stroke-width="0.3" d="M17.327-3.15c-0.828,0-1.5,0.672-1.5,1.5c0,0.827,0.672,1.5,1.5,1.5
			c0.829,0,1.5-0.673,1.5-1.5C18.827-2.478,18.156-3.15,17.327-3.15z"/>
		<path fill="none" stroke="#231F20" stroke-width="0.3" d="M18.36-30.2c-0.415-0.717-1.332-0.963-2.05-0.549
			c-0.718,0.415-0.964,1.332-0.549,2.049c0.414,0.719,1.331,0.965,2.049,0.55C18.528-28.564,18.774-29.481,18.36-30.2z"/>
		<path fill="none" stroke="#231F20" stroke-width="0.3" d="M18.047-49.9c-0.829,0-1.5,0.672-1.5,1.5s0.671,1.5,1.5,1.5
			c0.828,0,1.5-0.672,1.5-1.5S18.875-49.9,18.047-49.9z"/>
		<path fill="none" stroke="#231F20" stroke-width="0.3" d="M16.047-21.65c0.829,0,1.5,0.672,1.5,1.5s-0.671,1.5-1.5,1.5
			c-0.828,0-1.5-0.672-1.5-1.5S15.219-21.65,16.047-21.65z"/>
		<path fill="none" stroke="#231F20" stroke-width="0.3" d="M34.141-58.326c-0.414-0.717-1.331-0.963-2.049-0.549
			c-0.717,0.415-0.963,1.332-0.549,2.049c0.414,0.718,1.332,0.963,2.049,0.55C34.31-56.69,34.555-57.607,34.141-58.326z"/>
		<path fill="none" stroke="#231F20" stroke-width="0.3" d="M51.891-57.826c-0.414-0.717-1.331-0.963-2.049-0.549
			c-0.717,0.415-0.963,1.332-0.549,2.049c0.414,0.718,1.332,0.963,2.049,0.55C52.06-56.19,52.305-57.107,51.891-57.826z"/>
		<path fill="none" stroke="#231F20" stroke-width="0.3" d="M64.092-57.151c-0.828,0-1.5,0.672-1.5,1.5c0,0.827,0.672,1.5,1.5,1.5
			c0.829,0,1.5-0.673,1.5-1.5C65.592-56.479,64.921-57.151,64.092-57.151z"/>
		<path fill="none" stroke="#231F20" stroke-width="0.3" d="M17.342-57.151c-0.828,0-1.5,0.672-1.5,1.5c0,0.827,0.672,1.5,1.5,1.5
			c0.829,0,1.5-0.673,1.5-1.5C18.842-56.479,18.171-57.151,17.342-57.151z"/>
		<path fill="none" stroke="#231F20" stroke-width="0.3" d="M3.013-49.699c-0.414,0.719-0.169,1.636,0.549,2.05
			c0.718,0.415,1.636,0.169,2.05-0.55c0.414-0.717,0.168-1.634-0.55-2.049C4.344-50.662,3.427-50.416,3.013-49.699z"/>
	</g>
</pattern>
<pattern  x="-16.5" y="683" width="72" height="72" patternUnits="userSpaceOnUse" id="Hatching" viewBox="18.836 -74.101 72 72" overflow="visible">
	<g>
		<polygon fill="none" points="18.836,-2.101 18.836,-74.101 90.836,-74.101 90.836,-2.101 		"/>
		<line fill="#FFFFFF" x1="2.836" y1="-8.101" x2="8.836" y2="-2.101"/>
		<line fill="#FFFFFF" x1="2.836" y1="-2.101" x2="8.836" y2="-8.101"/>
		<line fill="none" stroke="#231F20" stroke-width="0.3" x1="24.586" y1="-63.351" x2="21.836" y2="-61.351"/>
		<line fill="none" stroke="#231F20" stroke-width="0.3" x1="23.086" y1="-7.101" x2="20.836" y2="-5.351"/>
		<line fill="none" stroke="#231F20" stroke-width="0.3" x1="92.086" y1="-67.101" x2="88.836" y2="-66.351"/>
		<line fill="none" stroke="#231F20" stroke-width="0.3" x1="90.836" y1="-55.351" x2="88.336" y2="-53.601"/>
		<line fill="none" stroke="#231F20" stroke-width="0.3" x1="93.586" y1="-50.101" x2="90.586" y2="-50.101"/>
		<line fill="none" stroke="#231F20" stroke-width="0.3" x1="90.336" y1="-42.601" x2="87.586" y2="-44.351"/>
		<line fill="none" stroke="#231F20" stroke-width="0.3" x1="92.586" y1="-34.351" x2="90.586" y2="-32.851"/>
		<line fill="none" stroke="#231F20" stroke-width="0.3" x1="90.086" y1="-22.351" x2="87.336" y2="-24.601"/>
		<line fill="none" stroke="#231F20" stroke-width="0.3" x1="92.086" y1="-11.351" x2="87.836" y2="-12.101"/>
		<line fill="none" stroke="#231F20" stroke-width="0.3" x1="82.336" y1="-13.101" x2="80.086" y2="-11.351"/>
		<line fill="none" stroke="#231F20" stroke-width="0.3" x1="90.586" y1="-29.101" x2="87.586" y2="-29.101"/>
		<line fill="none" stroke="#231F20" stroke-width="0.3" x1="76.836" y1="-56.601" x2="74.943" y2="-59.425"/>
		<line fill="none" stroke="#231F20" stroke-width="0.3" x1="46.836" y1="-58.101" x2="45.182" y2="-60.664"/>
		<line fill="none" stroke="#231F20" stroke-width="0.3" x1="61.877" y1="-62.544" x2="63.731" y2="-65.226"/>
		<line fill="none" stroke="#231F20" stroke-width="0.3" x1="86.8" y1="-1.252" x2="87.915" y2="-4.212"/>
		<line fill="none" stroke="#231F20" stroke-width="0.3" x1="81.962" y1="-1.116" x2="81.336" y2="-4.393"/>
		<line fill="none" stroke="#231F20" stroke-width="0.3" x1="75.836" y1="-26.101" x2="73.943" y2="-28.925"/>
		<line fill="none" stroke="#231F20" stroke-width="0.3" x1="67.491" y1="-54.536" x2="65.836" y2="-57.101"/>
		<line fill="none" stroke="#231F20" stroke-width="0.3" x1="66.749" y1="-0.263" x2="66.863" y2="-3.26"/>
		<line fill="none" stroke="#231F20" stroke-width="0.3" x1="59.377" y1="-3.794" x2="61.231" y2="-6.476"/>
		<line fill="none" stroke="#231F20" stroke-width="0.3" x1="51.048" y1="-1.858" x2="49.625" y2="-3.913"/>
		<line fill="none" stroke="#231F20" stroke-width="0.3" x1="69.152" y1="-33.312" x2="71.504" y2="-35.975"/>
		<line fill="none" stroke="#231F20" stroke-width="0.3" x1="34.782" y1="-1.726" x2="36.107" y2="-3.677"/>
		<line fill="none" stroke="#231F20" stroke-width="0.3" x1="28.083" y1="-3.23" x2="28.995" y2="-7.448"/>
		<line fill="none" stroke="#231F20" stroke-width="0.3" x1="23.722" y1="-0.394" x2="22.059" y2="-2.708"/>
		<line fill="none" stroke="#231F20" stroke-width="0.3" x1="45.877" y1="-4.057" x2="45.992" y2="-7.055"/>
		<line fill="none" stroke="#231F20" stroke-width="0.3" x1="26.086" y1="-68.851" x2="29.586" y2="-67.351"/>
		<line fill="none" stroke="#231F20" stroke-width="0.3" x1="23.336" y1="-53.351" x2="23.586" y2="-56.601"/>
		<line fill="none" stroke="#231F20" stroke-width="0.3" x1="26.836" y1="-30.351" x2="28.336" y2="-26.601"/>
		<line fill="none" stroke="#231F20" stroke-width="0.3" x1="24.086" y1="-35.851" x2="26.336" y2="-39.601"/>
		<line fill="none" stroke="#231F20" stroke-width="0.3" x1="48.086" y1="-69.601" x2="45.836" y2="-67.101"/>
		<line fill="none" stroke="#231F20" stroke-width="0.3" x1="52.336" y1="-69.601" x2="55.586" y2="-66.851"/>
		<line fill="none" stroke="#231F20" stroke-width="0.3" x1="69.086" y1="-69.601" x2="72.336" y2="-67.601"/>
		<line fill="none" stroke="#231F20" stroke-width="0.3" x1="71.336" y1="-63.601" x2="69.336" y2="-60.351"/>
		<line fill="none" stroke="#231F20" stroke-width="0.3" x1="78.336" y1="-64.851" x2="83.336" y2="-67.101"/>
		<line fill="none" stroke="#231F20" stroke-width="0.3" x1="85.836" y1="-61.351" x2="83.336" y2="-59.601"/>
		<line fill="none" stroke="#231F20" stroke-width="0.3" x1="37.586" y1="-69.351" x2="37.586" y2="-66.351"/>
		<line fill="none" stroke="#231F20" stroke-width="0.3" x1="34.586" y1="-64.351" x2="31.336" y2="-63.851"/>
		<line fill="none" stroke="#231F20" stroke-width="0.3" x1="38.836" y1="-59.851" x2="39.336" y2="-56.601"/>
		<line fill="none" stroke="#231F20" stroke-width="0.3" x1="39.836" y1="-64.351" x2="43.336" y2="-65.101"/>
		<line fill="none" stroke="#231F20" stroke-width="0.3" x1="28.086" y1="-52.601" x2="30.836" y2="-54.601"/>
		<line fill="none" stroke="#231F20" stroke-width="0.3" x1="26.336" y1="-10.101" x2="26.586" y2="-14.101"/>
		<line fill="none" stroke="#231F20" stroke-width="0.3" x1="26.086" y1="-18.351" x2="28.336" y2="-20.851"/>
		<line fill="none" stroke="#231F20" stroke-width="0.3" x1="40.086" y1="-8.351" x2="37.586" y2="-11.851"/>
		<line fill="none" stroke="#231F20" stroke-width="0.3" x1="48.586" y1="-45.601" x2="46.086" y2="-43.851"/>
		<line fill="none" stroke="#231F20" stroke-width="0.3" x1="76.586" y1="-40.351" x2="73.836" y2="-41.851"/>
		<line fill="none" stroke="#231F20" stroke-width="0.3" x1="45.586" y1="-34.101" x2="41.836" y2="-34.851"/>
		<line fill="none" stroke="#231F20" stroke-width="0.3" x1="50.336" y1="-24.601" x2="48.336" y2="-23.101"/>
		<line fill="none" stroke="#231F20" stroke-width="0.3" x1="47.836" y1="-12.601" x2="45.086" y2="-14.851"/>
		<line fill="none" stroke="#231F20" stroke-width="0.3" x1="51.086" y1="-8.351" x2="49.086" y2="-9.601"/>
		<line fill="none" stroke="#231F20" stroke-width="0.3" x1="48.336" y1="-19.351" x2="45.336" y2="-19.351"/>
		<line fill="none" stroke="#231F20" stroke-width="0.3" x1="58.586" y1="-55.101" x2="56.086" y2="-53.351"/>
		<line fill="none" stroke="#231F20" stroke-width="0.3" x1="61.336" y1="-49.851" x2="58.336" y2="-49.851"/>
		<line fill="none" stroke="#231F20" stroke-width="0.3" x1="58.086" y1="-42.351" x2="55.336" y2="-44.101"/>
		<line fill="none" stroke="#231F20" stroke-width="0.3" x1="57.336" y1="-31.601" x2="56.586" y2="-29.101"/>
		<line fill="none" stroke="#231F20" stroke-width="0.3" x1="57.836" y1="-22.101" x2="55.086" y2="-24.351"/>
		<line fill="none" stroke="#231F20" stroke-width="0.3" x1="58.336" y1="-14.101" x2="56.336" y2="-15.351"/>
		<line fill="none" stroke="#231F20" stroke-width="0.3" x1="81.809" y1="-29.583" x2="78.809" y2="-29.583"/>
		<line fill="none" stroke="#231F20" stroke-width="0.3" x1="41.086" y1="-31.101" x2="43.586" y2="-29.351"/>
		<line fill="none" stroke="#231F20" stroke-width="0.3" x1="45.836" y1="-53.601" x2="48.836" y2="-53.601"/>
		<line fill="none" stroke="#231F20" stroke-width="0.3" x1="33.586" y1="-39.351" x2="36.086" y2="-37.601"/>
		<line fill="none" stroke="#231F20" stroke-width="0.3" x1="30.836" y1="-34.101" x2="33.836" y2="-34.101"/>
		<line fill="none" stroke="#231F20" stroke-width="0.3" x1="34.086" y1="-26.601" x2="36.836" y2="-28.351"/>
		<line fill="none" stroke="#231F20" stroke-width="0.3" x1="66.086" y1="-41.101" x2="68.47" y2="-42.661"/>
		<line fill="none" stroke="#231F20" stroke-width="0.3" x1="66.423" y1="-48.63" x2="68.807" y2="-46.809"/>
		<line fill="none" stroke="#231F20" stroke-width="0.3" x1="73.558" y1="-52.616" x2="73.336" y2="-49.601"/>
		<line fill="none" stroke="#231F20" stroke-width="0.3" x1="64.171" y1="-8.538" x2="67.22" y2="-8.411"/>
		<line fill="none" stroke="#231F20" stroke-width="0.3" x1="65.173" y1="-14.38" x2="67.557" y2="-12.559"/>
		<line fill="none" stroke="#231F20" stroke-width="0.3" x1="72.308" y1="-18.366" x2="73.431" y2="-15.307"/>
		<line fill="none" stroke="#231F20" stroke-width="0.3" x1="67.086" y1="-30.601" x2="64.586" y2="-28.851"/>
		<line fill="none" stroke="#231F20" stroke-width="0.3" x1="66.836" y1="-23.101" x2="63.586" y2="-24.101"/>
		<line fill="none" stroke="#231F20" stroke-width="0.3" x1="75.836" y1="-7.601" x2="73.086" y2="-9.351"/>
		<line fill="none" stroke="#231F20" stroke-width="0.3" x1="83.336" y1="-33.101" x2="80.586" y2="-34.851"/>
		<line fill="none" stroke="#231F20" stroke-width="0.3" x1="81.086" y1="-22.101" x2="79.086" y2="-20.601"/>
		<line fill="none" stroke="#231F20" stroke-width="0.3" x1="38.421" y1="-44.538" x2="41.47" y2="-44.411"/>
		<line fill="none" stroke="#231F20" stroke-width="0.3" x1="39.423" y1="-50.38" x2="41.807" y2="-48.559"/>
		<line fill="none" stroke="#231F20" stroke-width="0.3" x1="76.586" y1="-45.601" x2="79.307" y2="-45.059"/>
		<line fill="none" stroke="#231F20" stroke-width="0.3" x1="33.836" y1="-18.351" x2="34.336" y2="-15.101"/>
		<line fill="none" stroke="#231F20" stroke-width="0.3" x1="35.836" y1="-20.351" x2="39.336" y2="-21.101"/>
		<line fill="none" stroke="#231F20" stroke-width="0.3" x1="51.586" y1="-61.351" x2="55.586" y2="-60.601"/>
		<line fill="none" stroke="#231F20" stroke-width="0.3" x1="52.309" y1="-40.583" x2="52.809" y2="-37.083"/>
		<line fill="none" stroke="#231F20" stroke-width="0.3" x1="83.336" y1="-51.101" x2="80.836" y2="-52.351"/>
		<line fill="none" stroke="#231F20" stroke-width="0.3" x1="28.836" y1="-60.601" x2="32.086" y2="-57.851"/>
		<line fill="none" stroke="#231F20" stroke-width="0.3" x1="23.586" y1="-44.601" x2="21.086" y2="-42.851"/>
		<line fill="none" stroke="#231F20" stroke-width="0.3" x1="34.586" y1="-50.101" x2="32.586" y2="-48.601"/>
		<line fill="none" stroke="#231F20" stroke-width="0.3" x1="60.127" y1="-69.294" x2="61.981" y2="-71.976"/>
		<line fill="none" stroke="#231F20" stroke-width="0.3" x1="83.377" y1="-39.044" x2="85.231" y2="-41.726"/>
		<line fill="none" stroke="#231F20" stroke-width="0.3" x1="52.627" y1="-47.794" x2="53.336" y2="-50.601"/>
		<line fill="none" stroke="#231F20" stroke-width="0.3" x1="39.127" y1="-15.294" x2="39.836" y2="-18.101"/>
		<line fill="none" stroke="#231F20" stroke-width="0.3" x1="50.586" y1="-31.351" x2="48.586" y2="-29.851"/>
		<line fill="none" stroke="#231F20" stroke-width="0.3" x1="20.086" y1="-67.101" x2="16.836" y2="-66.351"/>
		<line fill="none" stroke="#231F20" stroke-width="0.3" x1="18.836" y1="-55.351" x2="16.336" y2="-53.601"/>
		<line fill="none" stroke="#231F20" stroke-width="0.3" x1="21.586" y1="-50.101" x2="18.586" y2="-50.101"/>
		<line fill="none" stroke="#231F20" stroke-width="0.3" x1="20.586" y1="-34.351" x2="18.586" y2="-32.851"/>
		<line fill="none" stroke="#231F20" stroke-width="0.3" x1="20.086" y1="-11.351" x2="15.836" y2="-12.101"/>
		<line fill="none" stroke="#231F20" stroke-width="0.3" x1="18.586" y1="-29.101" x2="15.586" y2="-29.101"/>
		<line fill="none" stroke="#231F20" stroke-width="0.3" x1="86.8" y1="-73.252" x2="87.915" y2="-76.212"/>
		<line fill="none" stroke="#231F20" stroke-width="0.3" x1="81.962" y1="-73.116" x2="81.336" y2="-76.393"/>
		<line fill="none" stroke="#231F20" stroke-width="0.3" x1="66.749" y1="-72.263" x2="66.863" y2="-75.26"/>
		<line fill="none" stroke="#231F20" stroke-width="0.3" x1="51.048" y1="-73.858" x2="49.625" y2="-75.913"/>
		<line fill="none" stroke="#231F20" stroke-width="0.3" x1="34.782" y1="-73.726" x2="36.107" y2="-75.677"/>
		<line fill="none" stroke="#231F20" stroke-width="0.3" x1="23.722" y1="-72.394" x2="22.059" y2="-74.708"/>
		<line fill="none" stroke="#231F20" stroke-width="0.3" x1="0.059" y1="-64.601" x2="3.559" y2="-63.101"/>
		<line fill="none" stroke="#231F20" stroke-width="0.3" x1="24.086" y1="-22.101" x2="20.336" y2="-22.851"/>
		<line fill="none" stroke="#231F20" stroke-width="0.3" x1="87.204" y1="-16.76" x2="85.309" y2="-19.583"/>
		<line fill="none" stroke="#231F20" stroke-width="0.3" x1="42.809" y1="-38.083" x2="43.492" y2="-40.872"/>
		<line fill="none" stroke="#231F20" stroke-width="0.3" x1="63.586" y1="-37.101" x2="61.586" y2="-35.601"/>
		<line fill="none" stroke="#231F20" stroke-width="0.3" x1="74.309" y1="-72.083" x2="76.309" y2="-75.083"/>
		<line fill="none" stroke="#231F20" stroke-width="0.3" x1="74.309" y1="-0.083" x2="76.309" y2="-3.083"/>
	</g>
</pattern>
<radialGradient id="SVGID_1_" cx="471.1133" cy="767.8262" r="329.0781" gradientTransform="matrix(1 0 0 0.184 0 626.5676)" gradientUnits="userSpaceOnUse">
	<stop  offset="0" style="stop-color:#000026"/>
	<stop  offset="0.6499" style="stop-color:#000028;stop-opacity:0.3501"/>
	<stop  offset="0.8838" style="stop-color:#00002F;stop-opacity:0.1162"/>
	<stop  offset="1" style="stop-color:#000036;stop-opacity:0"/>
</radialGradient>
<path opacity="0.6" fill="url(#SVGID_1_)" d="M808.545,767.826c0,36.818-151.073,66.664-337.425,66.664
	c-186.364,0-337.438-29.846-337.438-66.664s151.073-66.664,337.438-66.664C657.472,701.162,808.545,731.008,808.545,767.826z"/>
<image overflow="visible" width="665" height="579" xlink:href="25DC90BE.png"  transform="matrix(1 0 0 1 141.5 218)">
</image>
<linearGradient id="SVGID_2_" gradientUnits="userSpaceOnUse" x1="213.9941" y1="465.958" x2="753.6279" y2="465.958">
	<stop  offset="0" style="stop-color:#D34F1D"/>
	<stop  offset="0.6909" style="stop-color:#942923"/>
	<stop  offset="1" style="stop-color:#D34F1D"/>
</linearGradient>
<path fill="url(#SVGID_2_)" d="M213.994,471.566c0,0,46.597-42.765,111.188-54.509c68.289-12.416,70.162-42.229,158.627-54.645
	c88.466-12.416,223.043,16.824,223.043,16.824s30.464,37.979,46.293,77.453c15.83,39.474-361.227,202.484-535.149,55.776
	C217.995,512.464,220.905,498.569,213.994,471.566z"/>
<linearGradient id="SVGID_3_" gradientUnits="userSpaceOnUse" x1="142.1523" y1="612.0327" x2="806.3516" y2="612.0327">
	<stop  offset="0" style="stop-color:#F36C21"/>
	<stop  offset="0.6909" style="stop-color:#D34F1D"/>
	<stop  offset="1" style="stop-color:#F36C21"/>
</linearGradient>
<path fill="url(#SVGID_3_)" d="M216.37,486.322c5.966,47.573-3.122,102.476-45.154,158.833c0,0-29.063,10.567-29.063,51.52
	c0,40.953,46.233,67.367,46.233,67.367s284.02,81.905,582.571-15.848c0,0,63.414-66.052,20.479-148.618
	c0,0-1.34-74.569-52.296-171.68C638.604,507.462,466.415,643.652,216.37,486.322z"/>
<g>
	<linearGradient id="SVGID_4_" gradientUnits="userSpaceOnUse" x1="161.0918" y1="645.8164" x2="174.7441" y2="645.8164">
		<stop  offset="0" style="stop-color:#F38721"/>
		<stop  offset="0.6909" style="stop-color:#FF9100"/>
		<stop  offset="1" style="stop-color:#F36C21"/>
	</linearGradient>
	<path fill="url(#SVGID_4_)" d="M171.216,645.156c1.237-1.661,2.347-3.31,3.528-4.965c-3.134,1.649-8.542,5.141-13.652,11.252
		C166.614,646.872,171.216,645.156,171.216,645.156z"/>
	<linearGradient id="SVGID_5_" gradientUnits="userSpaceOnUse" x1="222.5781" y1="491.5308" x2="744.6094" y2="491.5308">
		<stop  offset="0" style="stop-color:#F38721"/>
		<stop  offset="0.6909" style="stop-color:#FF9100"/>
		<stop  offset="1" style="stop-color:#F36C21"/>
	</linearGradient>
	<path fill="url(#SVGID_5_)" d="M742.032,424.314c-5.76,4.556-8.439,6.675-14.665,11.537
		c-102.537,80.044-269.063,192.583-504.789,44.263c0.437,3.51,0.771,7.069,1.037,10.658
		c246.122,150.194,415.966,15.92,515.525-62.875C741.426,436.785,748.313,455.949,742.032,424.314z"/>
</g>
<pattern  id="SVGID_6_" xlink:href="#Circles" patternTransform="matrix(3.104 0 0 3.104 18070.3945 17019.8496)">
</pattern>
<path fill="url(#SVGID_6_)" d="M216.37,486.322c5.966,47.573-3.122,102.476-45.154,158.833c0,0-29.063,10.567-29.063,51.52
	c0,40.953,46.233,67.367,46.233,67.367s284.02,81.905,582.571-15.848c0,0,63.414-66.052,20.479-148.618
	c0,0-1.34-74.569-52.296-171.68C638.604,507.462,466.415,643.652,216.37,486.322z"/>
<path fill="#37AF98" d="M456.424,800c-0.012,0-0.024,0-0.036,0c-155.663,0-268.597-30.861-269.725-31.177l-1.357,0.017
	c-2.013-1.152-49.361-28.412-49.361-72.463c0-39.08,24.208-53.101,31.276-56.405c113.855-154.572-28.015-299.491-29.458-300.943
	l-3.613-3.577l2.85-4.222c52.944-78.759,141.785-118.686,264.05-118.686c103.396,0,193.972,30.11,194.875,30.413l1.14,0.386
	l0.916,0.789C782.772,402.519,796.65,579.759,797.578,597.953c43.214,84.961-21.48,153.85-22.141,154.542l-1.073,1.121l-1.474-0.713
	C675.041,784.943,568.569,800,456.424,800z M190.853,757.307C200.862,760.07,309.2,788,456.388,788c0.012,0,0.024,0,0.036,0
	c110.242,0,214.889-14.883,311.065-46.178c8.021-8.973,56.303-67.054,18.437-139.872l-0.667-1.044l-0.03-1.334
	c-0.037-1.813-5.705-182.959-194.391-345.27c-10.622-3.41-94.674-29.361-189.789-29.361c-115.741,0-200.145,36.736-250.967,109.172
	c22.213,24.699,137.427,165.505,26.105,314.748l-1.109,1.492l-1.74,0.637c-0.982,0.375-24.978,9.399-24.978,45.199
	C148.36,730.671,185.584,754.105,190.853,757.307z"/>
<path opacity="0.21" fill="#29ABE2" d="M191.986,407.296c0,0,83.997,6.972,98.42-7.457c14.429-14.429,4.923-58.695,44.566-58.695
	c39.643,0,86.434-12.552,93.745-12.552s42.457,5.092,78.959-31.414c36.503-36.506,52.551-64.233,58.443-64.233
	c5.894,0-62.911-43.372-62.911-43.372l-257.26,120.867l-84.857,30.704L191.986,407.296z"/>
<image overflow="visible" width="560" height="354" xlink:href="25DC90BD.png"  transform="matrix(1 0 0 1 90.5 26)">
</image>
<image overflow="visible" width="442" height="387" xlink:href="25DC90BA.png"  transform="matrix(1 0 0 1 354.5 297)">
</image>
<g>
	<path fill="#FFCF01" d="M534.893,136.954c0,0,1.818-0.794,4.929-2.052c-2.886-15.271-11.773-48.461-36.612-71.193
		C530.788,94.104,534.893,136.954,534.893,136.954z"/>
	<path fill="#FFCF01" d="M642.818,129.952c-0.782-0.782-1.655-1.47-2.577-2.11c13.896,18-15.083,20.562-27.408,32.89
		c-13.211,13.21,7.263,65.391-9.246,81.905c-16.515,16.512-42.274,0-58.128,0s-79.262,25.121-77.413,54.163
		c1.85,29.04-83.754,2.641-106.21-3.965c-22.456-6.605-70.011,10.57-70.011,38.31c0,27.742-43.596,42.274-80.584,29.064
		c-36.994-13.21-49.907-0.361-100.396,11.889c-4.825,1.17-8.561,1.185-11.386,0.282c2.098,5.732,7.415,8.394,17.594,5.926
		c50.489-12.25,63.402-25.099,100.396-11.889c36.988,13.21,80.584-1.322,80.584-29.064c0-27.739,47.555-44.915,70.011-38.31
		c22.456,6.605,108.06,33.005,106.21,3.965c-1.849-29.043,61.56-54.164,77.413-54.164s41.614,16.512,58.128,0
		c16.509-16.514-3.965-68.695,9.246-81.905C632.251,153.729,664.619,151.75,642.818,129.952z"/>
</g>
<g>
	<path fill="#FFEEA9" d="M561.313,472.494c0,18.861-21.358,52.514-28.233,62.857c2.377,2.892,4.056,6.081,4.056,9.403
		c0,0,30.386-43.59,30.386-66.052c0,0,2.94,2.431,7.112,6.396C567.454,477.574,561.313,472.494,561.313,472.494z"/>
	<path fill="#FFEEA9" d="M487.313,546.572c13.011-7.5,24.705-16.023,28.688-24.068c0,0,5.966,2.94,11.556,7.469
		c-5.966-7.887-17.764-13.677-17.764-13.677c-10.567,21.34-75.304,46.027-75.304,46.027c18.504,0,50.205-17.169,50.205-17.169
		C485.573,545.59,486.439,546.081,487.313,546.572z"/>
	<path fill="#FFEEA9" d="M670.561,478.702c0,0,20.655-42.638,15.247-69.417c-4.067-5.756-6.923-9.445-6.923-9.445
		c6.699,22.331-8.264,58.71-13.071,69.471C667.56,472.19,669.202,475.246,670.561,478.702z"/>
	<path fill="#FFEEA9" d="M595.657,432.862c13.289,13.295,4.299,62.93,1.043,78.626c2.188,3.644,4.014,7.36,5.165,11.016
		c0,0,15.854-67.58,0-83.434c0,0,30.246-2.243,52.12,16.314C632.196,430.165,595.657,432.862,595.657,432.862z"/>
	<path fill="#FFEEA9" d="M520.869,575.4c-1.934-2.074-4.286-4.474-6.96-7.015c4.02,4.244,6.451,7.251,6.451,7.251
		C520.536,575.558,520.693,575.479,520.869,575.4z"/>
	<path fill="#FFEEA9" d="M600.78,603.039c-6.299-15.017-19.255-44.281-27.973-52.999c0,0-0.249,0.364-0.733,0.982
		c11.652,18.006,26.227,54.897,26.227,54.897C599.161,605.058,599.98,604.076,600.78,603.039z"/>
	<path fill="#FFEEA9" d="M714.944,390.055c6.263,9.876,4.002,48.155,2.231,68.901c2.946,7.184,4.904,14.053,4.904,19.746
		c0,0,11.913-72.83,3.201-86.567c-8.712-13.735-75.109-94.956-75.109-94.956s-3.056,3.041-3.516,3.471
		C662.442,320.777,707.772,378.745,714.944,390.055z"/>
	<path fill="#FFEEA9" d="M765.125,477.641c0,0-5.348,16.272-6.215,18.964l25.676,87.186
		C660.8,707.601,404.341,677.427,356.44,670.528c-0.528,1.667-1.031,3.347-1.601,5.008c0,0,303.959,46.482,440.828-90.412
		L765.125,477.641z"/>
	<path fill="#FFEEA9" d="M677.271,567.197c-6.475-14.708-20.631-43.378-38.715-59.741c21.68,23.959,36.363,62.796,36.363,62.796
		C675.708,569.464,676.49,568.397,677.271,567.197z"/>
	<path fill="#FFEEA9" d="M719.098,550.016c-3.443-11.252-9.579-28.391-16.83-35.642c0,0-0.151,0.733-0.406,1.903
		c8.252,14.672,14.011,38.122,14.011,38.122C716.885,553.387,717.976,551.829,719.098,550.016z"/>
</g>
<linearGradient id="SVGID_7_" gradientUnits="userSpaceOnUse" x1="216.293" y1="102.4268" x2="400.5867" y2="162.8869">
	<stop  offset="0" style="stop-color:#FF9100;stop-opacity:0"/>
	<stop  offset="1" style="stop-color:#F36C21;stop-opacity:0.34"/>
</linearGradient>
<path fill="url(#SVGID_7_)" d="M99.459,190.462c0,0,42.718,37.661,137.257,12.271c94.54-25.39,252.932-120.721,244.311-139.024
	s-90.381-31.468-211.33,0C148.748,95.177,106.698,163.359,99.459,190.462z"/>
<pattern  id="SVGID_8_" xlink:href="#Hatching" patternTransform="matrix(1.2416 0 0 1.2416 2856.4058 2080.6094)">
</pattern>
<path fill="url(#SVGID_8_)" d="M777.407,590.635c0,0-135.008,124.15-420.967,79.893c0,0,34.175-93.746-1.601-191.826
	c0,0,160.294-9.458,291.816-178.052c0,0,68.288,65.206,68.288,89.405s-4.462,54.824-4.462,54.824l-39.043-45.039l-5.626,24.475
	c0,0-31.586-15.145-38.54-8.188c-6.953,6.957-25.408,22.943-25.408,22.943s3.474,37.509-15.436,38.57s-68.059-7.239-64.918,1.061
	s19.261,5.135,11.567,12.829s-40.024,6.068-40.024,6.068l-24.857,16.775l-45.323,20.012l11.615,37.728c0,0,31.78-3.729,45.173-3.729
	s34.247,25.718,34.247,25.718s45.306-31.326,58.165-18.467c12.858,12.859,7.905,42.82,32.435,36.491
	c24.529-6.33,28.84-94.831,34.048-89.623c5.207,5.208,48.154,73.06,48.154,73.06s6.857-49.458,15.15-41.165
	c8.294,8.294,26.609,17.612,26.609,17.612l33.635-64.554L777.407,590.635z"/>
<pattern  id="SVGID_9_" xlink:href="#Hatching" patternTransform="matrix(1.0874 -0.3069 0.1741 0.617 2982.2632 -5478.415)">
</pattern>
<path fill="url(#SVGID_9_)" d="M114.143,200.811c0,0,25.317,20.11,44.512,14.696c19.194-5.417,182.642-44.608,198.695-60.847
	c16.048-16.242,105.131-100.518,76.121-109.341c-29.009-8.831-162.671,24.929-222.06,53.454
	C152.034,127.302,114.143,200.811,114.143,200.811z"/>
<pattern  id="SVGID_10_" xlink:href="#Hatching" patternTransform="matrix(1.2416 0 0 1.2416 2856.4058 2080.6094)">
</pattern>
<path fill="url(#SVGID_10_)" d="M142.152,297.179c0,0-51.702,80.384-31.308,74.918s36.066-15.838,57.073-15.838
	s38.552,12.504,63.408,3.083c24.857-9.421,70.126-52.902,84.131-58.692c14.005-5.79,104.046,37.751,132.346,9.448
	c28.307-28.303,91.448-73.669,97.656-67.461s35.854,33.784,50.198-0.576c14.344-34.36,0.485-81.493,14.374-95.383
	c13.89-13.889-55.15,0-55.15,0s-53.788,25.59-60.365,32.168c-6.578,6.578-144.757,101.291-190.08,101.291
	C259.111,280.137,142.152,297.179,142.152,297.179z"/>
<path opacity="0.17" fill="#0E5C77" d="M142.152,683.138c0,0,15.557,73.442,46.233,80.905
	c30.676,7.463,265.188,55.782,395.322,24.802c130.133-30.979,193.699-35.368,193.699-35.368l26.924-73.413
	c0,0,23.56-2.625-40.776,23.699C699.219,730.086,357.107,848.21,142.152,683.138z"/>
<linearGradient id="SVGID_11_" gradientUnits="userSpaceOnUse" x1="171.2158" y1="656.1904" x2="788.793" y2="656.1904">
	<stop  offset="0" style="stop-color:#29ABE2"/>
	<stop  offset="0.2242" style="stop-color:#29ABE2;stop-opacity:0"/>
	<stop  offset="1" style="stop-color:#29ABE2"/>
</linearGradient>
<path opacity="0.17" fill="url(#SVGID_11_)" d="M176.739,651.443c0,0,66.124,94.727,326.47,62.559
	c260.346-32.167,282.28-108.083,282.28-108.083l3.304-14.205c0,0-29.785,88.659-285.584,106.204
	c-255.799,17.544-319.874-70.38-319.874-70.38l-12.119,17.618L176.739,651.443z"/>
<linearGradient id="SVGID_12_" gradientUnits="userSpaceOnUse" x1="133.6826" y1="317.9766" x2="175.3203" y2="317.9766">
	<stop  offset="0" style="stop-color:#FF9100;stop-opacity:0"/>
	<stop  offset="1" style="stop-color:#F36C21;stop-opacity:0.34"/>
</linearGradient>
<path fill="url(#SVGID_12_)" d="M152.392,305.83c0,0,12.392-28.127,21.729-21.21c9.336,6.917-38.801,66.219-40.353,67.771
	C132.216,353.943,152.392,305.83,152.392,305.83z"/>
<linearGradient id="SVGID_13_" gradientUnits="userSpaceOnUse" x1="217.252" y1="317.9492" x2="287.5" y2="317.9492">
	<stop  offset="0" style="stop-color:#FF9100;stop-opacity:0"/>
	<stop  offset="1" style="stop-color:#F36C21;stop-opacity:0.34"/>
</linearGradient>
<path fill="url(#SVGID_13_)" d="M287.5,341.008v-68.289l-18.619,2.556l-51.629,84.067C217.252,359.342,253.5,375.656,287.5,341.008z
	"/>
<linearGradient id="SVGID_14_" gradientUnits="userSpaceOnUse" x1="199.6426" y1="257.2827" x2="250.2354" y2="257.2827">
	<stop  offset="0" style="stop-color:#FF9100;stop-opacity:0"/>
	<stop  offset="1" style="stop-color:#F36C21;stop-opacity:0.34"/>
</linearGradient>
<path fill="url(#SVGID_14_)" d="M241.814,273c0,0-58.206-19.517-37.854-27.713c20.358-8.193,27.767-0.303,27.767-0.303L250.235,273
	H241.814z"/>
<path fill="#877715" d="M184.627,283.065c-30.592,0-50.017-1.995-50.744-2.074l0.679-6.171c0.703,0.079,19.255,1.979,48.573,2.052
	c-17.387-1.246-35.599-3.089-54.696-5.592l0.807-6.154c51.92,6.809,97.432,8.715,137.244,7.036
	c83.016-9.724,187.243-37.8,256.981-113.046c9.803-14.802,13.18-25.081,13.307-25.502l3.953-12.907l3.644,23.302l-0.824,1.061
	c-4.42,5.681-9.027,11.14-13.787,16.372c-10.651,16.705-29.173,39.101-60.165,60.004c-38.394,25.899-102.051,52.747-203.175,56.927
	C235.152,282.007,206.925,283.065,184.627,283.065z M485.5,201.014c-37.83,27.63-80.862,46.173-123.531,58.519
	C419.563,245.813,458.934,223.267,485.5,201.014z"/>
<path fill="none" stroke="#877715" stroke-miterlimit="10" d="M379.538,258.572"/>
<linearGradient id="SVGID_15_" gradientUnits="userSpaceOnUse" x1="379.5381" y1="272.0078" x2="470.3691" y2="272.0078">
	<stop  offset="0" style="stop-color:#FF9100;stop-opacity:0"/>
	<stop  offset="1" style="stop-color:#F36C21;stop-opacity:0.34"/>
</linearGradient>
<path fill="url(#SVGID_15_)" d="M379.538,258.572l4.729,40.704c0,0,66.137,20.04,78.813,7.363s4.965-9.84,4.965-9.84l-43.093-63.626
	L379.538,258.572z"/>
<linearGradient id="SVGID_16_" gradientUnits="userSpaceOnUse" x1="483.8086" y1="214.2959" x2="610.9199" y2="214.2959">
	<stop  offset="0" style="stop-color:#FF9100;stop-opacity:0"/>
	<stop  offset="1" style="stop-color:#F36C21;stop-opacity:0.34"/>
</linearGradient>
<path fill="url(#SVGID_16_)" d="M483.809,207.325l102.621,42.599c0,0,20.692,3.995,23.548-42.599
	c2.855-46.594-1.691-22.531-1.691-22.531l-95.098-6.211L483.809,207.325z"/>
<linearGradient id="SVGID_17_" gradientUnits="userSpaceOnUse" x1="527.5566" y1="158.8467" x2="579.1455" y2="158.8467">
	<stop  offset="0" style="stop-color:#FF9100;stop-opacity:0"/>
	<stop  offset="1" style="stop-color:#F36C21;stop-opacity:0.34"/>
</linearGradient>
<path fill="url(#SVGID_17_)" d="M527.557,165.112c0,0,25.438-2.071,47.076-9.312c21.637-7.242-41.554,0-41.554,0L527.557,165.112z"
	/>
<linearGradient id="SVGID_18_" gradientUnits="userSpaceOnUse" x1="417.2715" y1="205.0347" x2="449.9336" y2="205.0347">
	<stop  offset="0" style="stop-color:#FF9100;stop-opacity:0"/>
	<stop  offset="1" style="stop-color:#F36C21;stop-opacity:0.34"/>
</linearGradient>
<path fill="url(#SVGID_18_)" d="M449.101,220.814c0,0,5.08-16.302-9.857-31.24c-14.938-14.938-21.972,4.511-21.972,4.511
	l21.972,32.053L449.101,220.814z"/>
<linearGradient id="SVGID_19_" gradientUnits="userSpaceOnUse" x1="446.4121" y1="173.6914" x2="513.207" y2="173.6914">
	<stop  offset="0" style="stop-color:#FF9100;stop-opacity:0"/>
	<stop  offset="1" style="stop-color:#F36C21;stop-opacity:0.34"/>
</linearGradient>
<path fill="url(#SVGID_19_)" d="M511.5,173.39V142.35l-16.589,10.23l18.296,26.002c0,0-16.117-19.736-38.949-19.736
	s-34.076,25.087-24.315,25.087c9.754,0,29.893,21.101,29.893,21.101L511.5,173.39z"/>
<linearGradient id="SVGID_20_" gradientUnits="userSpaceOnUse" x1="141.3066" y1="208.1357" x2="533.6738" y2="208.1357">
	<stop  offset="0" style="stop-color:#FF9100;stop-opacity:0"/>
	<stop  offset="1" style="stop-color:#F36C21;stop-opacity:0.34"/>
</linearGradient>
<path fill="url(#SVGID_20_)" d="M302.907,271.556c0,0,184.133-34.733,230.767-121.546l-5.82-6.457L511.424,167h-12.416
	c0,0-24.76,7.278-24.76,16.842s-11.968,22.095-19.728,14.335c-7.76-7.76-22.856-3.937-31.325,4.533
	c-8.47,8.469-12.138,23.417-20.413,23.417s-38.994-31.072-38.994-18.531s12.095,40.277-17.909,40.277
	c-30.01,0-42.972-18.614-42.972-5.161c0,13.453-32.398,23.272-39.807,15.86c-7.408-7.411-35.175-15.593-35.175-8.563
	c0,7.03-13.459,15.112-33.114,8.564c-19.654-6.547-59.825-15.726-52.659-8.563c7.159,7.163,6.099,22.71,6.099,22.71
	S291.874,271.556,302.907,271.556z"/>
<linearGradient id="SVGID_21_" gradientUnits="userSpaceOnUse" x1="309.3154" y1="215.707" x2="374.5" y2="215.707">
	<stop  offset="0" style="stop-color:#FF9100;stop-opacity:0"/>
	<stop  offset="1" style="stop-color:#F36C21;stop-opacity:0.34"/>
</linearGradient>
<path fill="url(#SVGID_21_)" d="M371.539,231.767l-24.086-53.887c0,0-38.138,2.204-38.138,19.034
	c0,16.83,50.889,50.786,50.889,50.786l14.296,5.835v-18.063L371.539,231.767z"/>
<path fill="#FFFFFF" d="M221.196,391c0,0,65.185,172.887-27.937,266.008c0,0-41.904,62.387,7.76,62.387
	c49.665,0,58.977-48.572,58.977-48.572S292.589,565,238.269,391H221.196z"/>
<linearGradient id="SVGID_22_" gradientUnits="userSpaceOnUse" x1="628.2871" y1="583.8501" x2="778.476" y2="529.293">
	<stop  offset="0" style="stop-color:#FF9100;stop-opacity:0"/>
	<stop  offset="1" style="stop-color:#F36C21;stop-opacity:0.34"/>
</linearGradient>
<path fill="url(#SVGID_22_)" d="M547.363,675.705c0,0,114.176,7.263,248.305-90.581l-30.543-107.483
	c0,0-38.062,77.983-43.045,82.966c0,0-10.773-34.884-20.219-44.33c0,0-12.556,52.005-20.733,60.184c0,0-25.761-60.777-52.842-76.619
	c0,0-3.88,92.388-23.777,112.285S547.363,675.705,547.363,675.705z"/>
<linearGradient id="SVGID_23_" gradientUnits="userSpaceOnUse" x1="575.6055" y1="462.8394" x2="705.0612" y2="375.1072">
	<stop  offset="0" style="stop-color:#FF9100;stop-opacity:0"/>
	<stop  offset="1" style="stop-color:#F36C21;stop-opacity:0.34"/>
</linearGradient>
<path fill="url(#SVGID_23_)" d="M527.557,396.735l122.615-99.557l78.299,99.557c0,0-0.037,55.733-6.391,81.966
	c0,0-12.992-46.136-36.272-69.417c0,0-0.83,39.874-15.247,69.417c0,0-8.221-39.631-68.695-39.631c0,0,16.709,36.733,0,83.434
	c0,0-20.321-35.83-33.653-43.802L527.557,396.735z"/>
</svg>
