<?xml version="1.0" encoding="utf-8"?>
<!-- Generator: Adobe Illustrator 15.0.2, SVG Export Plug-In . SVG Version: 6.00 Build 0)  -->
<!DOCTYPE svg PUBLIC "-//W3C//DTD SVG 1.1//EN" "http://www.w3.org/Graphics/SVG/1.1/DTD/svg11.dtd">
<svg version="1.1" xmlns="http://www.w3.org/2000/svg" xmlns:xlink="http://www.w3.org/1999/xlink" x="0px" y="0px" width="32px"
	 height="32px" viewBox="0 0 32 32" enable-background="new 0 0 32 32" xml:space="preserve">
<g id="shadow">
	<ellipse fill="#2D2824" cx="16.104" cy="29.721" rx="16.146" ry="2.654"/>
</g>
<g id="Layer_1">
	<g>
		<path fill="#CEE125" d="M27.736,10.419c-0.653-0.382-1.381-0.237-1.981,0.976c-1.875,1.807-1.998,1.685-4.44,0.163
			c-2.348-1.464-0.338,0.295-3.155-2.359c-0.578-0.457-0.881,0.122-1.799-0.383c-1.724-2.031-1.21-1.569-3.485-1.569
			c-2.318,0-2.642-0.895-4.469,2.798c-0.262,0.529,0.025,1.193,0.072,1.765c-0.171,0.835-0.479-3.107-2.519-0.835
			c-1.225,1.364-1.63,3.664-1.63,8.055c0,0.398-0.222,0.781-0.201,1.163c-0.418,0.704-0.94,1.903-0.94,3.272v0.413
			c0,1.733,0.756,4.57,1.497,5.636c0.062,0.088,0.124,0.165,0.185,0.228c0.061,0.192,0.121,0.181,0.181,0.144
			c0.06,0.074,0.118-0.069,0.175,0.051c0-0.068,0.008,0.09,0.025,0c0.016,0.012,0.04,0.014,0.072,0c0.032-0.051,0.071,0.08,0.118,0
			c0.047-0.023,0.101,0.063,0.162,0c0.061-0.055,0.128-0.225,0.203,0c0.038-0.026,0.076-0.049,0.117-0.054
			c0.041-0.004,0.083-0.009,0.127,0.054c0.044,0.014,0.089-0.063,0.136-0.034c0.047,0.031,0.096,0.032,0.146,0.034
			c0.05,0.125,0.102,0.104,0.155,0.062c0.053-0.13,0.107-0.102,0.164-0.062c0.056,0.06,0.113-0.063,0.172,0
			c0.059-0.028,0.119-0.027,0.181,0c0.105-0.026,0.215-0.082,0.328,0c0.113,0.087,0.229-0.082,0.351,0
			c0.12,0.064,0.244,0.045,0.372,0c0.127,0.003,0.258,0.067,0.392,0c0.134-0.076,0.271-0.069,0.412,0
			c0.14-0.049,0.283-0.074,0.429,0c0.146-0.014,0.293,0.053,0.445,0c0.088,0.004,0.177,0.036,0.267,0c0.09,0.012,0.181,0.04,0.272,0
			c0.091-0.021,0.184-0.008,0.277-0.003c0.093,0.003,0.187,0.006,0.282,0.003c0.189,0,0.381,0,0.576,0c0.174,0,0.35-0.065,0.528,0
			c0.178,0.066,0.357,0.074,0.539,0c0.181,0.124,0.364,0.103,0.549,0c0.184,0,0.369,0,0.556,0c0.77,0,1.558,0,2.349,0
			c0.198,0,0.396,0,0.594,0c0.198-0.023,0.396-0.055,0.594,0c0.197-0.02,0.395,0.05,0.592,0c0.197-0.016,0.394,0,0.589,0
			c0.221,0,0.442,0,0.662,0c0.22,0.021,0.438,0.035,0.655,0c0.216,0.043,0.432-0.018,0.645,0c0.212-0.056,0.423-0.013,0.63,0
			c0.209,0,0.414,0,0.617,0c3.446,0,6.067,0,6.067,0c0.389,0,1.085-0.976,1.012-2.044c0.881-1.609,1.802-1.105,1.802-10.084
			C30.383,12.448,30.816,12.215,27.736,10.419z"/>
		<g>
			<path fill="#697537" d="M28.333,10.143c-0.789-0.219-2.081-0.289-2.656,0.505c-1.698,2.342-3.671,1.03-5.286-0.228
				c-1.473-1.147-3.339-2.015-4.664-3.278c-0.794-0.757-4.004-0.457-5.067-0.172C9.927,7.167,9.573,7.429,9.031,7.935
				c-1.25,1.166-0.673,3.33-1.294,4.032c0.46-0.084,0.919-0.168,1.379-0.253c-0.609-1.37-1.232-2.18-2.8-1.453
				c-3.65,1.695-2.742,9.089-3.692,12.033c-0.552,1.714-0.092,7.31,1.83,7.867c0.269,0.078,0.552,0.084,0.833,0.059
				c1.901-0.169-0.355-0.227-0.165-0.04c0.212,0.209,0.892-0.061,1.099-0.155c-1.016,0.465-0.461,0.294-0.05,0.257
				c0.372-0.033,1.27-0.056,2.644-0.056c4.072,0,8.145,0,12.216,0c2.007,0,4.832,0.566,6.787-0.134
				c1.42-0.508,1.703-2.531,2.393-3.773c1.324-2.386,0.878-6.161,0.897-8.705c0.026-3.487,0.432-5.547-2.688-7.438
				c-0.353-0.213-1.546,0.381-1.367,0.489c3.089,1.872,2.626,4.003,2.605,7.338c-0.018,2.844,0.419,6.646-1.229,9.162
				c-0.205,0.313-1.698,2.481-0.6,2.481c-1.952,0-3.904,0-5.856,0c-2.254,0-4.507,0-6.761,0c-2.697,0-5.395,0-8.092,0
				c-1.313,0,0.483-0.237-0.798-0.004c-0.609,0.11,0.796-0.123-0.084-0.044c-1.378,0.122,0.19,0.034,0.144-0.012
				c-0.242-0.236-1.15,0.1-1.338,0.304c0.871-0.947,0.935,0.502-0.075-1.399c-0.804-1.514-1.057-3.53-1.057-5.22
				c0-1.594,0.869-2.861,1.13-4.371c0.086-0.499,0.086-2.738,0.12-3.343c0.03-0.556,1.103-6.61,2.504-3.455
				c0.147,0.333,1.215-0.067,1.379-0.252c0.333-0.376,0.131-0.381,0.005-1.131c-0.48-2.847,2.626-3.159,4.424-3.212
				c1.683-0.05,4.229,3.005,5.842,3.596c1.615,0.59,2.788,2.165,4.632,1.83c0.932-0.169,2.731-2.363,3.191-2.235
				C27.469,10.788,28.742,10.256,28.333,10.143z"/>
		</g>
	</g>
	<path fill="#EDEBB0" stroke="#000000" stroke-miterlimit="10" d="M12.5,25.638c0,1.083,0.087,1.987-0.188,2.578
		c-0.055,0.119-0.021,0.225-0.089,0.316c-0.069,0.083-0.097,0.12-0.181,0.233c-0.083,0.107-0.152,0.035-0.252,0.145
		c-0.1-0.053-0.196,0.004-0.313,0.05c0,0.002-0.092,0.085-0.191,0c-0.098-0.064-0.194,0.039-0.194,0
		c-0.117,0.145,0.055-0.018-0.062-0.05c-0.935-0.262-1.53-1.539-1.53-3.272V15.173c0-1.949,0.543-2.673,1.596-2.673h0.394
		c1.053,0,1.01,0.724,1.01,2.673V25.638z"/>
	<path fill="#EDEBB0" stroke="#000000" stroke-miterlimit="10" d="M18.5,24.344c0,1.469-0.599,3.156-1.502,3.156h-0.468
		c-0.903,0-2.029-1.688-2.029-3.156v-9.881c0-1.469,1.126-1.963,2.029-1.963h0.468c0.904,0,1.502,0.494,1.502,1.963V24.344z"/>
	<path stroke="#000000" stroke-miterlimit="10" d="M12.5,21.356c0,0.427,0.063,1.144-0.322,1.144h-0.367
		c-0.385,0-0.311-0.717-0.311-1.144v-1.382c0-0.428-0.074-0.475,0.311-0.475h0.367c0.385,0,0.322,0.047,0.322,0.475V21.356z"/>
	<path stroke="#000000" stroke-miterlimit="10" d="M16.5,21.153c0,0.539-0.513,0.976-1,0.976l0,0c-0.486,0-1-0.437-1-0.976v-1.952
		c0-0.539,0.514-0.976,1-0.976l0,0c0.487,0,1,0.437,1,0.976V21.153z"/>
</g>
</svg>
